<svg width="340" height="258" fill="none" xmlns="http://www.w3.org/2000/svg"><path d="m199.814 33.785-50.128 21.683 12.371 46.666 49.35-22.192-11.593-46.157Z" fill="#F5AD0E"/><path d="m154.221 91.212 7.836 10.922-12.371-46.666-6.414-7.058 10.949 42.802Z" fill="#9CC886"/><path d="m199.814 33.785-50.128 21.683-6.414-7.058 42.91-18.838 13.632 4.213Z" fill="#005444"/><path d="m199.814 33.785-15.699 9.473 20.583 10.01-4.884-19.483Z" fill="#B0BF5B"/><path d="m199.814 33.785-32.068 19.483-3.006 13.659-10.492 5.715-4.562-17.174 50.128-21.683Z" fill="#009076"/><path d="m162.057 102.134 2.683-35.207-10.492 5.715 7.809 29.492Z" fill="#59A665"/><path d="m52.49 253.001 6.118 4.293 5.286-15.483-11.405 3.676v7.514Z" fill="#1D2144"/><path d="m48.625 245.89 3.06-6.924-3.865-8.936.805 15.86Z" fill="#87133E"/><path d="m38.67 245.89 5.903-1.637-2.952-2.442-2.952 4.079Zm-8.561-4.079-1.208-4.884-7.54 4.884h8.748Z" fill="#1D2144"/><path d="M7.728 251.981 0 254.423l5.501-5.877 2.227 3.435Z" fill="#392256"/><path d="m37.65 221.684-7.541 10.359 1.02-6.897 6.52-3.462Z" fill="#4F3653"/><path d="m7.729 220.047-2.013 8.346-4.696-5.099 6.709-3.247Z" fill="#30306D"/><path d="m12.425 193.588-8.05 2.442 3.354-3.864 4.696 1.422Z" fill="#32347F"/><path d="m55.549 166.538-3.06 6.924-10.868.805 13.928-7.729Z" fill="#87133E"/><path d="m68.778 178.346 3.462-6.119-8.346 2.04 4.884 4.079Z" fill="#37338A"/><path d="m55.549 194.098-1.02 8.855-4.777-4.427 5.797-4.428Z" fill="#392256"/><path d="m77.124 190.743 5.904-6.306-19.134 4.884 13.23 1.422Z" fill="#FAC531"/><path d="m75.89 198.526-6.71 2.2 1.235-6.628 5.475 4.428Z" fill="#30306D"/><path d="m90.756 184.437 14.84-11.378-14.84 5.287v6.091Z" fill="#4F3653"/><path d="m83.028 166.538-7.139 2.657 3.57-4.696 3.569 2.039Z" fill="#30306D"/><path d="m66.551 132.753-11.002 9.58-9.554-5.904 20.556-3.676Z" fill="#EB5F31"/><path d="m52.49 210.494.16 8.534-6.655 5.206 6.494-13.74Z" fill="#1D2144"/><path d="m83.028 124.219-7.139 1.423 3.57-3.65 3.569 2.227Z" fill="#FED804"/><path d="m31.558 110.802-13.847-1.235v-7.728l13.847 8.963Z" fill="#E68C62"/><path d="M128.782 83.564H91.749l28.096-7.728 8.937 7.728Z" fill="#EB5F31"/><path d="m125.347 107.743-15.887 4.669 9.178-8.346 6.709 3.677Z" fill="#F5AD0E"/><path d="m131.25 106.32-5.904-2.254 4.884-1.207 1.02 3.461Z" fill="#F8B46A"/><path d="m157.092 105.515-6.735 2.738v-2.738h6.735Z" fill="#FDE738"/><path d="m119.443 153.309-1.02 7.943-6.092-3.972 7.112-3.971Z" fill="#30306D"/><path d="m135.919 146.815-10.573 11.592 5.287-16.074 5.286 4.482Z" fill="#EE761C"/><path d="m155.241 121.992-29.895 21.763 2.952-12.612 26.943-9.151Z" fill="#FCC009"/><path d="m77.07 217.364-9.607 19.563 4.106-19.563h5.501Z" fill="#341F49"/><path d="m55.548 223.107-2.28 13.82 17.71-23.884-15.43 10.064Z" fill="#943914"/><path d="m63.197 237.946-9.93-1.019 17.712-23.884-7.782 24.903Z" fill="#392256"/><path d="m72.535 204.644-12.317 15.403-2.013-10.975 14.33-4.428Z" fill="#87133E"/><path d="m75.89 214.868 22.3-29.465-20.046 12.022-2.255 17.443Z" fill="#EC622E"/><path d="m78.278 220.047 32.068-25.332-22.434 12.666-9.634 12.666Z" fill="#4F3653"/><path d="m127.735 162.379-40.709 41.648 57.803-33.624-4.535-10.788-12.559 2.764Z" fill="#30306D"/><path d="m118.584 163.747-31.558 40.28 40.709-41.648-9.151 1.368Z" fill="#EB5F30"/><path d="m113.378 196.03 1.208-8.024 16.047-4.803-17.255 12.827Z" fill="#32347F"/><path d="m153.711 154.892-13.417 4.723h-11.996l8.131-6.306 17.282 1.583Z" fill="#EC622C"/><path d="m189.67 130.177 2.442 5.635-32.497 21.468v-3.139h-2.523l32.578-23.964Z" fill="#2F2F70"/><path d="m189.375 127.279-32.283 26.861-21.173-3.22 32.256-35.234 21.2 11.593Z" fill="#EE761C"/><path d="m107.957 60.352-1.824-4.106-6.092.752 7.916 3.354Z" fill="#FAC531"/><path d="m66.658 40.601 4.965 4.133-10.144 3.354 5.18-7.487Z" fill="#37338A"/><path d="m203.571 76.614-14.947 4.267-9.017-6.414 23.964 2.147Z" fill="#EE761C"/><path d="m215.941 67.92-16.503 6.547 7.487-10.68 9.016 4.133Z" fill="#EB5F30"/><path d="M174.052 172.227 148.8 157.28l-5.34 3.113 5.474 11.834 6.87 22.488 11.915 9.312h6.87l-5.501-7.997 4.964-23.803Z" fill="#F5AD0E"/><path d="m162.647 165.492-3.113 6.574 9.554 24.313 4.964-24.152-11.405-6.735Z" fill="#F3931B"/><path d="m148.8 157.28 10.224 2.335 12.962 9.768-1.208.912L148.8 157.28Z" fill="#005CA8"/><path d="m173.408 175.34 82.035-4.267-57.83-3.059-24.205 7.326Z" fill="#EA5E0F"/><path d="m256.811 158.407-1.368 12.666-57.83-3.059 19.241-9.607h39.957Z" fill="#F8B46A"/><path d="m159.025 159.615 44.68-.939 13.149-.269-34.724 14.303-10.144-3.327-12.961-9.768Z" fill="#F3931B"/><path d="m198.687 151.377-36.04 8.238 41.675-.939-5.635-7.299Z" fill="#EC622C"/><path d="m206.764 158.622-3.945-4.481 8.829-8.4 27.774 9.768v2.898l-32.658.215Z" fill="#87133E"/><path d="m223.402 158.622-1.074-12.881 34.483 12.666-33.409.215Z" fill="#FFCB00"/><path d="m258.046 169.544 7.782-14.813-13.874-6.548 5.797 8.292.295 13.069Z" fill="#FDE738"/><path d="m178.399 91.454-12.075 16.799 19.992 15.671-1.208-6.574 16.021-19.992-.618-5.904h-22.112Z" fill="#EC6334"/><path d="m187.926 100.712 12.585-9.258h-22.112l9.527 9.258Z" fill="#EE761C"/><path d="m261.561 150.357-18.462-24.608c-.081.751-.537 4.159-3.516 6.575-4.266 3.461-9.687 1.476-9.929 1.368 10.627 5.555 21.281 11.11 31.907 16.665Z" fill="#9C5629"/><path d="m201.129 97.358 21.199 6.708 39.233 46.291-39.233-21.871-21.199-31.128Z" fill="#EE761C"/><path d="m251.954 152.182-8.855-7.085-20.771-16.611-21.199-31.128-13.203 21.816 22.971 24.555 41.057 8.453Z" fill="#2F2F70"/><path d="m261.561 150.357-18.462-5.26-32.202-1.368-21.442-17.98-1.529-6.575 13.203-21.817 60.432 53Z" fill="#FDE738"/><path d="m203.571 89.897 18.757 14.169-21.199-6.709-.618-5.903 3.06-1.557Z" fill="#F3931B"/><path d="m223.563 104.576-1.235-4.615 16.477-7.326-15.242 11.941Z" fill="#005CA8"/><path d="m182.827 89.897 24.849-2.307 9.312-11.432-8.533-.912-25.628 14.651Z" fill="#EE761C"/><path d="m206.469 73.42 10.519 1.826 5.34-8.4-15.859 6.575Zm-48.464-36.495 5.742 8.936-13.068 11.942-4.589-9.66 4.83-1.96-3.354-3.462 10.439-5.796Zm.161-4.642 8.802.402 10.358-9.473-19.16 9.07Z" fill="#37338A"/><path d="m163.479 36.013 1.127 2.334 35.583-21.414-2.281-8.212-34.429 27.292Z" fill="#005CA8"/><path d="m201.129 4.213 11.217 19.053-2.12-17.148-9.097-1.905Zm10.331-.993 18.865 24.662 9.607 4.427L211.46 3.22Z" fill="#37338A"/><path d="m224.904 4.186 21.549 33.276-.859-19.429-20.69-13.847Z" fill="#0087CE"/><path d="m216.183 5.367 8.721-1.18 21.549 33.275-30.27-32.095Z" fill="#591C42"/><path d="m248.466 19.214 16.584 8.936-4.428 5.689-12.156-14.625Z" fill="#F49618"/><path d="M272.241 39.904 265.05 28.15l-4.696 5.42 8.667 22.3 3.22-15.966Z" fill="#E6341F"/><path d="m264.459 67.92 1.369 8.399-7.031 7.406-2.281-9.258-10.895 2.308 7.38-8.856h11.458Z" fill="#923451"/><path d="m272.993 58.313 15.725 12.72-6.118-11.808-9.607-.912Z" fill="#fff"/><path d="m290.087 72.642-3.194 8.239 17.685 6.709-14.491-14.948Z" fill="#005CA8"/><path d="m282.6 59.225 6.118 11.807-19.536 7.729-4.642-1.073-.081-9.769 8.534-9.606 9.607.912Zm51.282 3.81-7.944 7.997-6.091 25.95 14.035-33.947Z" fill="#2F2F70"/><path d="m160.983 33.222 2.872 9.634.751-4.509-1.127-2.334 44.627-28.419 3.3 14.599-46.478 22.917-2.495 11.485-5.421 1.744-2.093-4.427-4.24 3.89-3.542 6.065-2.416-2.925 4.267-7.406-8.507 10.922-.751-12.64 2.013-1.797-.618-2.067 6.441-5.233 9.016-.563 4.401-8.936Z" fill="#408BCA"/><path d="m143.594 62.499 2.174 4.535-.993 4.347-1.234-2.603.053-6.28Z" fill="#408BCA"/><path d="m156.502 59.413 4.616-1.342-.966 9.07-1.637.778-2.013-8.506ZM134.685 3.086v2.281l-6.87-2.281h6.87Z" fill="#005CA8"/><path d="M107.018 18.919v3.81l-13.98-2.737 13.98-1.073Z" fill="#50A9DF"/><path d="m175.394 0-4.052 3.086-7.595-2.764L175.394 0Z" fill="#87133E"/><path d="m69.503 13.122-5.93 2.764.59-4.293 5.34 1.53Z" fill="#005CA8"/><path d="m211.272 56.917 8.4-2.442-10.547-3.032 2.147 5.474Z" fill="#32347F"/><path d="m229.118 42.319-5.689 3.488-4.616-13.578 10.305 10.09Z" fill="#87133E"/><path d="m210.226 6.118 36.227 31.344-6.897.805-5.608-1.906 4.132 3.435-9.553 1.96-2.173-8.48-14.008-10.01-2.12-17.148Zm37.971 12.827-1.905 46.908h16.477l6.252-9.982-8.587-22.3-12.237-14.625Z" fill="#005CA8"/><path d="m217.901 100.712 23.963-10.815.779 2.738L258.1 80.88l-1.584-6.414-10.895 2.308 4.643-10.922-3.355-26.405-18.918-.832-6.87 12.21 22.729 14.652-21.522-9.607-4.427 5.796.617 4.186 2.603-2.066 19.992 5.877-18.785-2.818-14.651 20.744v2.307l-1.208 2.174 11.432 8.641Z" fill="#EB5F31"/><path d="m296.232 63.035 11.244-12.37v-7.622l2.71-3.596-.617-10.76-2.791-2.12-13.954 19.777 3.408 16.691Z" fill="#FDE738"/><path d="m307.476 50.665-4.723.778v4.428l4.723-5.206Z" fill="#F8B46B"/><path d="M304.068 45.324h3.408v-3.461h-5.045l1.637 3.461Z" fill="#0087CE"/><path d="m294.515 16.396 12.263 10.17-1.315 1.852-10.948-12.022Z" fill="#FCD000"/><path d="m283.539 18.436 10.976-2.04 10.948 12.022-13.256 18.839-8.668-28.821Z" fill="#F49618"/><path d="m296.232 63.035-9.285-7.164-7.54 2.012 5.179-3.918h-2.845l-11.297 3.381 5.259-7.54-6.682 6.065 3.086-15.887h2.711l-1.101-10.868 9.822-10.68 5.474 18.087 2.094-4.83 2.683-1.155 3.891 2.899-.832 2.79-2.844 1.02-2.55 3.408 1.369 5.69 3.408 16.69Z" fill="#E8491E"/><path d="M328.085 35.878h-2.442v6.71h2.442v-6.71Z" fill="#408BCA"/><path d="m330.983 31.826 2.899.537-2.147 9.5h-2.281l1.529-10.037Z" fill="#0087CE"/><path d="m334.794 35.878 2.147.966-2.147 9.259-2.12-1.315 2.12-8.91Z" fill="#005CA8"/><path d="m338.309 41.863 1.691.724-.859 5.501h-2.2l1.368-6.225Z" fill="#37338A"/><path d="m325.643 44.251 10.52 5.501-5.931 3.516-6.414.912 1.825-9.929Z" fill="#2F2F70"/><path d="m338.471 51.443-8.239 1.825-6.413.912-3.516 1.69 3.516 4.563 10.063 1.234 4.589-10.224Zm-16.182-7.192v5.796l2.039 1.396-.509 2.737-3.516 1.69-.456-.778-.617-7.004 1.825-3.837h1.234Z" fill="#37338A"/><path d="m332.674 61.506-.993 3.757-11.834 31.719-3.059 9.231-3.972.752v4.293l-5.34 1.986-2.361-19.536 2.361-1.073 2.71 8.077-1.932-10.815 7.326-9.016 8.239-20.449 8.855 1.074Z" fill="#005CA8"/><path d="m287.484 71.542 2.147 2.281 12.934 13.015 2.898 10.52 1.315 9.982h-4.025v3.14l-15.86-13.122 5.341 1.26-7.648-5.983V87.59l-2.737 5.796-12.667-14.625 18.302-7.219Z" fill="#408BCA"/><path d="m243.85 65.478-22.729-14.652 6.87-12.21 18.918.831 3.355 26.406-1.127 2.684-5.287-3.06Z" fill="#A7646F"/><path d="m245.89 76.534-29.68 22.46 1.959 1.476 23.964-10.814.778 2.737 15.457-11.754-1.583-6.413-10.895 2.308Z" fill="#E6341F"/><path d="m156.582 42.158-9.016.563-6.441 5.233.618 2.066 14.839-7.862Z" fill="#87133E"/><path d="m164.928 45.11-3.945-11.888-4.401 8.936-11.861 18.784 2.416 2.925 7.782-9.955 2.093 4.427 5.421-1.744 2.495-11.485Z" fill="#37338A"/><path d="m139.73 51.819 2.013-1.799 14.839-7.862-8.184 12.102-7.917 10.198-.751-12.64Z" fill="#50A9DF"/><path d="m166.324 59.681 14.249-1.073-2.979 32.497-15.161 5.877 2.307-30.055 1.584-7.246Z" fill="#76AE64"/><path d="m184.115 43.258 20.583 10.01.831 3.247-39.206 3.166 1.423-6.413 16.369-10.01Z" fill="#98B962"/><path d="m205.53 56.515 3.622 14.517-31.155 16.8 2.576-29.224 24.957-2.093Z" fill="#B0C479"/><path d="m162.057 102.134 49.055-23.373-1.959-7.729-48.706 25.037 1.61 6.065Z" fill="#04A663"/><path d="m188.328 53.16 4.508 18.007-19.643 9.365-4.964-18.704 20.099-8.668Z" fill="#E9E593"/><path d="m143.46 160.393 1.905-1.073 5.85 12.907 6.682 21.388 9.822 10.412-11.915-9.312-6.87-22.488-5.474-11.834Z" fill="#EE761C"/><path d="m169.088 196.03 1.261-17.228-9.553-3.516 8.292 20.744Z" fill="#FFCB00"/><path d="M174.589 204.027h-6.87l-9.822-10.412-1.717-5.448 12.908 7.863 5.501 7.997Z" fill="#FDE738"/><path d="m148.8 157.28 13.847 8.212-3.113 6.574-8.318.161-2.899-6.386-2.952-6.521 3.435-2.04Z" fill="#E6341F"/></svg>