<svg width="340" height="258" fill="none" xmlns="http://www.w3.org/2000/svg"><path d="m200 34-50 21 12 47 49-22-11-46Z" fill="#F5AD0E"/><path d="m154 91 8 11-12-47-7-7 11 43Z" fill="#9CC886"/><path d="m200 34-50 21-7-7 43-18 14 4Z" fill="#005444"/><path d="m200 34-16 9 21 10-5-19Z" fill="#B0BF5B"/><path d="m200 34-32 19-3 14-11 6-4-18 50-21Z" fill="#009076"/><path d="m162 102 3-35-11 6 8 29Z" fill="#59A665"/><path d="m52 253 7 4 5-15-12 3v8Z" fill="#1D2144"/><path d="m49 246 3-7-4-9 1 16Z" fill="#87133E"/><path d="m39 246 6-2-3-2-3 4Zm-9-4-1-5-8 5h9Z" fill="#1D2144"/><path d="m8 252-8 2 6-5 2 3Z" fill="#392256"/><path d="m38 222-8 10 1-7 7-3Z" fill="#4F3653"/><path d="m8 220-2 8-5-5 7-3Z" fill="#30306D"/><path d="m12 194-8 2 4-4 4 2Z" fill="#32347F"/><path d="m56 167-4 6-10 1 14-7Z" fill="#87133E"/><path d="m69 178 3-6-8 2 5 4Z" fill="#37338A"/><path d="m56 194-1 9-5-4 6-5Z" fill="#392256"/><path d="m77 191 6-7-19 5 13 2Z" fill="#FAC531"/><path d="m76 199-7 2 1-7 6 5Z" fill="#30306D"/><path d="m91 184 15-11-15 5v6Z" fill="#4F3653"/><path d="m83 167-7 2 3-5 4 3Z" fill="#30306D"/><path d="m67 133-11 9-10-6 21-3Z" fill="#EB5F31"/><path d="m52 210 1 9-7 5 6-14Z" fill="#1D2144"/><path d="m83 124-7 2 3-4 4 2Z" fill="#FED804"/><path d="m32 111-14-1v-8l14 9Z" fill="#E68C62"/><path d="M129 84H92l28-8 9 8Z" fill="#EB5F31"/><path d="m125 108-16 4 10-8 6 4Z" fill="#F5AD0E"/><path d="m131 106-6-2 5-1 1 3Z" fill="#F8B46A"/><path d="m157 106-7 2v-2h7Z" fill="#FDE738"/><path d="m119 153-1 8-6-4 7-4Z" fill="#30306D"/><path d="m136 147-11 11 6-16 5 5Z" fill="#EE761C"/><path d="m155 122-30 22 3-13 27-9Z" fill="#FCC009"/><path d="m77 217-10 20 5-20h5Z" fill="#341F49"/><path d="m56 223-3 14 18-24-15 10Z" fill="#943914"/><path d="m63 238-10-1 18-24-8 25Z" fill="#392256"/><path d="m73 205-13 15-2-11 15-4Z" fill="#87133E"/><path d="m76 215 22-30-20 12-2 18Z" fill="#EC622E"/><path d="m78 220 32-25-22 12-10 13Z" fill="#4F3653"/><path d="m128 162-41 42 58-34-5-10-12 2Z" fill="#30306D"/><path d="m119 164-32 40 41-42-9 2Z" fill="#EB5F30"/><path d="m113 196 2-8 16-5-18 13Z" fill="#32347F"/><path d="m154 155-14 5h-12l8-7 18 2Z" fill="#EC622C"/><path d="m190 130 2 6-32 21v-3h-3l33-24Z" fill="#2F2F70"/><path d="m189 127-32 27-21-3 32-35 21 11Z" fill="#EE761C"/><path d="m108 60-2-4-6 1 8 3Z" fill="#FAC531"/><path d="m67 41 5 4-11 3 6-7Z" fill="#37338A"/><path d="m204 77-15 4-9-7 24 3Z" fill="#EE761C"/><path d="m216 68-17 6 8-10 9 4Z" fill="#EB5F30"/><path d="m174 172-25-15-6 3 6 12 7 23 12 9h7l-6-8 5-24Z" fill="#F5AD0E"/><path d="m163 165-3 7 9 24 5-24-11-7Z" fill="#F3931B"/><path d="m149 157 10 3 13 9-1 1-22-13Z" fill="#005CA8"/><path d="m173 175 82-4-57-3-25 7Z" fill="#EA5E0F"/><path d="m257 158-2 13-57-3 19-10h40Z" fill="#F8B46A"/><path d="m159 160 45-1 13-1-35 15-10-4-13-9Z" fill="#F3931B"/><path d="m199 151-36 9 41-1-5-8Z" fill="#EC622C"/><path d="m207 159-4-5 9-8 27 10v2l-32 1Z" fill="#87133E"/><path d="m223 159-1-13 35 12-34 1Z" fill="#FFCB00"/><path d="m258 170 8-15-14-7 6 8v14Z" fill="#FDE738"/><path d="m178 91-12 17 20 16-1-7 16-20v-6h-23Z" fill="#EC6334"/><path d="m188 101 13-10h-23l10 10Z" fill="#EE761C"/><path d="m262 150-19-24c0 1 0 4-3 6-5 4-10 2-10 2l32 16Z" fill="#9C5629"/><path d="m201 97 21 7 40 46-40-22-21-31Z" fill="#EE761C"/><path d="m252 152-9-7-21-17-21-31-13 22 23 25 41 8Z" fill="#2F2F70"/><path d="m262 150-19-5-32-1-22-18-1-7 13-22 61 53Z" fill="#FDE738"/><path d="m204 90 18 14-21-7v-6l3-1Z" fill="#F3931B"/><path d="m224 105-2-5 17-7-15 12Z" fill="#005CA8"/><path d="m183 90 25-2 9-12-9-1-25 15Z" fill="#EE761C"/><path d="m206 73 11 2 5-8-16 6Zm-48-36 6 9-13 12-5-10 5-2-3-3 10-6Zm0-5 9 1 10-10-19 9Z" fill="#37338A"/><path d="m163 36 2 2 35-21-2-8-35 27Z" fill="#005CA8"/><path d="m201 4 11 19-2-17-9-2Zm10-1 19 25 10 4-29-29Z" fill="#37338A"/><path d="m225 4 21 33V18L225 4Z" fill="#0087CE"/><path d="m216 5 9-1 21 33-30-32Z" fill="#591C42"/><path d="m248 19 17 9-4 6-13-15Z" fill="#F49618"/><path d="m272 40-7-12-5 6 9 22 3-16Z" fill="#E6341F"/><path d="m264 68 2 8-7 8-2-10-11 3 7-9h11Z" fill="#923451"/><path d="m273 58 16 13-6-12-10-1Z" fill="#fff"/><path d="m290 73-3 8 18 7-15-15Z" fill="#005CA8"/><path d="m283 59 6 12-20 8-4-1-1-10 9-10 10 1Zm51 4-8 8-6 26 14-34Z" fill="#2F2F70"/><path d="m161 33 3 10 1-5-2-2 45-28 3 14-46 23-3 12-5 1-2-4-4 4-4 6-2-3 4-7-9 10V52l2-2-1-2 7-5 9-1 4-9Z" fill="#408BCA"/><path d="m144 62 2 5-1 4-1-2v-7Z" fill="#408BCA"/><path d="m157 59 4-1-1 9-1 1-2-9ZM135 3v2l-7-2h7Z" fill="#005CA8"/><path d="M107 19v4l-14-3 14-1Z" fill="#50A9DF"/><path d="m175 0-4 3-7-3h11Z" fill="#87133E"/><path d="m70 13-6 3v-4l6 1Z" fill="#005CA8"/><path d="m211 57 9-3-11-3 2 6Z" fill="#32347F"/><path d="m229 42-6 4-4-14 10 10Z" fill="#87133E"/><path d="m210 6 36 31-6 1-6-2 4 4-9 2-3-9-14-10-2-17Zm38 13-2 47h17l6-10-9-22-12-15Z" fill="#005CA8"/><path d="m218 101 24-11 1 3 15-12-1-7-11 3 4-11-3-27h-19l-7 12 23 14-22-9-4 6 1 4 2-2 20 6-19-3-14 21v2l-2 2 12 9Z" fill="#EB5F31"/><path d="m296 63 11-12v-8l3-4V29l-3-2-14 19 3 17Z" fill="#FDE738"/><path d="M307 51h-4v5l4-5Z" fill="#F8B46B"/><path d="M304 45h3v-3h-5l2 3Z" fill="#0087CE"/><path d="m295 16 12 11-2 1-10-12Z" fill="#FCD000"/><path d="m284 18 11-2 10 12-13 19-8-29Z" fill="#F49618"/><path d="m296 63-9-7-8 2 6-4h-3l-12 3 6-7-7 6 3-16h3l-1-11 10-11 5 19 2-5 3-1 4 2-1 3-3 1-3 4 2 5 3 17Z" fill="#E8491E"/><path d="M328 36h-2v7h2v-7Z" fill="#408BCA"/><path d="M331 32h3l-2 10h-3l2-10Z" fill="#0087CE"/><path d="m335 36 2 1-2 9-2-1 2-9Z" fill="#005CA8"/><path d="m338 42 2 1-1 5h-2l1-6Z" fill="#37338A"/><path d="m326 44 10 6-6 3-6 1 2-10Z" fill="#2F2F70"/><path d="m338 51-8 2-6 1-4 2 4 4 10 2 4-11Z" fill="#37338A"/><path d="M322 44v6l2 1v3l-4 2v-1l-1-7 2-4h1Z" fill="#37338A"/><path d="m333 62-1 3-12 32-3 9-4 1v4l-6 2-2-19 2-1 3 8-2-11 8-9 8-21 9 2Z" fill="#005CA8"/><path d="m287 72 3 2 13 13 2 10 2 10h-4v3l-16-13 5 2-7-6v-5l-3 5-13-14 18-7Z" fill="#408BCA"/><path d="m244 65-23-14 7-12h19l3 27-1 3-5-4Z" fill="#A7646F"/><path d="m246 77-30 22 2 1 24-10 1 2 15-11-1-7-11 3Z" fill="#E6341F"/><path d="m157 42-9 1-7 5 1 2 15-8Z" fill="#87133E"/><path d="m165 45-4-12-4 9-12 19 2 3 8-10 2 4 5-1 3-12Z" fill="#37338A"/><path d="m140 52 2-2 15-8-9 12-8 10V52Z" fill="#50A9DF"/><path d="m166 60 15-1-3 32-16 6 3-30 1-7Z" fill="#76AE64"/><path d="m184 43 21 10 1 4-40 3 2-7 16-10Z" fill="#98B962"/><path d="m206 57 3 14-31 17 3-29 25-2Z" fill="#B0C479"/><path d="m162 102 49-23-2-8-49 25 2 6Z" fill="#04A663"/><path d="m188 53 5 18-20 10-5-19 20-9Z" fill="#E9E593"/><path d="m143 160 2-1 6 13 7 22 10 10-12-9-7-23-6-12Z" fill="#EE761C"/><path d="m169 196 1-17-9-4 8 21Z" fill="#FFCB00"/><path d="M175 204h-7l-10-10-2-6 13 8 6 8Z" fill="#FDE738"/><path d="m149 157 14 8-3 7h-9l-3-6-3-7 4-2Z" fill="#E6341F"/></svg>