<svg width="436" height="86" fill="none" xmlns="http://www.w3.org/2000/svg"><path d="M5.988 55.492c.026-.664.352-.99.977-.976h9.765c1.954 0 2.93-.983 2.93-2.95 0-1.94-.97-2.91-2.91-2.91H3.098c-1.98 0-2.97.977-2.97 2.93V73.07C.22 75.023 1.198 76 3.059 76h11.739c4.544 0 6.816-2.279 6.816-6.836v-.957c0-4.557-2.272-6.836-6.816-6.836h-5.88c-.651 0-.977.326-.977.977 0 .65.326.976.977.976h5.86c3.255-.013 4.882 1.615 4.882 4.883v.957c0 3.268-1.627 4.896-4.883 4.883H3.06c-.664 0-.99-.326-.977-.977V51.586c-.013-.625.313-.95.977-.977h13.67c.651-.013.977.313.977.977-.026.664-.352.99-.977.977H6.965c-1.953 0-2.93.99-2.93 2.968v13.613c0 .652.326.977.977.977.65 0 .976-.325.976-.977V55.492Zm36.133 5.84c.625-.013.95.313.977.977 0 .664-.326.99-.977.976h-5.879c-1.94 0-2.91.977-2.91 2.93v2.91c0 1.98.977 2.969 2.93 2.969H47.98c.626-.013.951.312.977.976 0 .664-.325.99-.977.977H32.356c-.665-.026-.99-.352-.977-.977V51.586c.026-.664.351-.99.976-.977h17.579c.65 0 .976-.325.976-.976s-.325-.977-.976-.977H32.356c-1.954 0-2.93.99-2.93 2.969V73.07c0 1.953.99 2.93 2.969 2.93H48c1.94 0 2.91-.977 2.91-2.93v.04c0-1.98-.976-2.97-2.93-2.97H36.263c-.625.014-.95-.312-.977-.976v-2.95c0-.663.326-.989.977-.976h5.879c1.94 0 2.91-.976 2.91-2.93v.04c0-1.98-.977-2.97-2.93-2.97h-5.86c-.624.014-.95-.312-.976-.976v-2.91c0-.65-.325-.976-.976-.976s-.977.325-.977.976v2.871c0 1.98.977 2.969 2.93 2.969h5.86ZM62.63 73.07c.013.651-.313.977-.977.977-.664-.026-.99-.352-.976-.977V51.586c.026-.664.351-.99.976-.977h17.579c.65 0 .976-.325.976-.976s-.325-.977-.976-.977h-17.58c-1.953 0-2.93.99-2.93 2.969V73.07c0 1.953.99 2.93 2.97 2.93h-.04c1.953 0 2.93-.97 2.93-2.91V55.492c0-.65-.325-.976-.976-.976-.652 0-.977.325-.977.976V73.07Zm32.227-7.851c-4.558 0-6.837-2.272-6.837-6.817v-6.836c0-1.94.964-2.91 2.891-2.91 1.98 0 2.969.977 2.969 2.93v6.836c0 .65-.326.976-.977.976-.65 0-.976-.325-.976-.976v-6.836c.013-.625-.313-.95-.977-.977-.638 0-.963.3-.976.899v6.875c-.013 3.255 1.614 4.883 4.883 4.883h7.832c1.94 0 2.91.976 2.91 2.93v2.929c0 1.98-.977 2.969-2.93 2.969h-11.72c-.625-.013-.95.312-.976.976 0 .664.325.99.976.977h11.739c3.242 0 4.863-1.628 4.863-4.883V51.586c.013-.625-.313-.95-.977-.977-.664 0-.989.326-.976.977v6.797c0 .65-.326.976-.977.976s-.976-.325-.976-.976v-6.817c0-1.94.963-2.91 2.89-2.91 1.979 0 2.969.977 2.969 2.93v17.578c0 4.557-2.272 6.836-6.816 6.836H90.93c-1.94 0-2.91-.97-2.91-2.91 0-1.966.976-2.95 2.93-2.95h11.718c.625.014.95-.312.977-.976v-2.969c0-.664-.326-.99-.977-.976h-7.813ZM120.266 76c-1.967 0-2.95-.977-2.95-2.93V51.586c0-1.94.983-2.917 2.95-2.93 1.94 0 2.91.97 2.91 2.91v17.598c0 .664.325.99.976.977h5.821c.651.013.976-.313.976-.977V51.586c0-1.94.983-2.917 2.949-2.93 1.941 0 2.911.97 2.911 2.91v17.598c0 .664.325.99.976.977h7.832c.651 0 .977.325.977.976s-.326.977-.977.977h-7.851c-1.94 0-2.911-.977-2.911-2.93V51.586c.013-.651-.312-.977-.976-.977-.664.026-.99.352-.977.977v17.578c0 1.953-.97 2.93-2.91 2.93h-5.859c-1.94 0-2.91-.977-2.91-2.93V51.586c.013-.651-.313-.977-.977-.977-.664.026-.989.352-.976.977V73.07c-.013.625.312.95.976.977h29.063c2.083.013 3.125.996 3.125 2.95v1.952c-.013.651.312.977.976.977.664-.026.99-.352.977-.977v-5.86c-.026-.663-.345-.989-.957-.976-1.966 0-2.95-.976-2.95-2.93v-19.55c0-.651.326-.977.977-.977s.977.326.977.977v19.55c-.013.626.312.951.976.977 1.953 0 2.93.983 2.93 2.95v5.84c0 1.952-.983 2.929-2.949 2.929-1.94 0-2.911-.97-2.911-2.91v-1.973c0-.65-.39-.983-1.171-.996h-29.043Zm61.464-24.434c0-1.94-.97-2.91-2.91-2.91-1.966 0-2.949.977-2.949 2.93v3.008h.02v1.152c0 1.354-.606 2.962-1.817 4.824l-6.269 9.864c-1.628 2.408-3.171 3.613-4.629 3.613-.664 0-.99-.326-.977-.977V51.586c-.013-.625.313-.95.977-.977.664 0 .989.326.976.977v17.578c0 .651.326.977.977.977s.976-.326.976-.977V51.566c0-1.94-.97-2.91-2.91-2.91-1.966 0-2.949.977-2.949 2.93V73.07c.091 1.953 1.022 2.93 2.793 2.93 2.083 0 4.037-1.302 5.859-3.906l6.993-10.567c1.302-1.823 1.953-3.613 1.953-5.37v-2.54h-.02v-2.031c-.013-.625.313-.95.977-.977.664 0 .989.326.976.977v21.562c-.013.6-.338.899-.976.899-.664-.026-.99-.352-.977-.977v-6.836c0-.65-.325-.976-.976-.976s-.977.325-.977.976v6.836c0 1.953.99 2.93 2.969 2.93 1.927 0 2.89-.97 2.89-2.91V51.566Zm29.297 0c0-1.94-.97-2.91-2.91-2.91-1.966 0-2.949.977-2.949 2.93v3.008h.02v1.152c0 1.354-.606 2.962-1.817 4.824l-6.269 9.864c-1.628 2.408-3.171 3.613-4.629 3.613-.664 0-.99-.326-.977-.977V51.586c-.013-.625.313-.95.977-.977.664 0 .989.326.976.977v17.578c0 .651.326.977.977.977s.976-.326.976-.977V51.566c0-1.94-.97-2.91-2.91-2.91-1.966 0-2.949.977-2.949 2.93V73.07c.091 1.953 1.022 2.93 2.793 2.93 2.083 0 4.036-1.302 5.859-3.906l6.993-10.567c1.302-1.823 1.953-3.613 1.953-5.37v-2.54h-.02v-2.031c-.013-.625.313-.95.977-.977.664 0 .989.326.976.977v21.562c-.013.6-.338.899-.976.899-.664-.026-.99-.352-.977-.977v-6.836c0-.65-.325-.976-.976-.976-.652 0-.977.325-.977.976v6.836c0 1.953.99 2.93 2.969 2.93 1.927 0 2.89-.97 2.89-2.91V51.566Zm-14.668-8.789c-.651-.013-.976.313-.976.977.026.664.351.99.976.977h7.735c.625.012.95-.313.976-.977 0-.664-.325-.99-.976-.977h-7.735Zm7.754-1.953c1.94 0 2.91.97 2.91 2.91-.013 1.966-.989 2.95-2.929 2.95h-7.735c-1.94 0-2.916-.983-2.929-2.95 0-1.94.97-2.91 2.91-2.91h7.773Zm24.649 8.809c0-.651.325-.977.976-.977s.977.326.977.977v8.75c0 3.268 1.627 4.896 4.883 4.883h7.91c1.94 0 2.91.976 2.91 2.93v6.874c-.013.651.312.977.977.977.664-.026.989-.352.976-.977V51.586c.013-.625-.312-.95-.976-.977-.665 0-.99.326-.977.977v6.816c0 1.953-.97 2.93-2.91 2.93h-7.91c-.651 0-.977-.325-.977-.977 0-.65.326-.976.977-.976h7.89c.651.013.977-.313.977-.977v-6.836c0-1.94.97-2.91 2.91-2.91 1.966 0 2.949.977 2.949 2.93V73.07c0 1.94-.983 2.917-2.949 2.93-1.94 0-2.91-.97-2.91-2.91v-6.895c0-.664-.326-.99-.977-.976h-7.91c-4.544 0-6.816-2.279-6.816-6.836v-8.75Zm42.07 11.699c.625-.013.951.313.977.977 0 .664-.326.99-.977.976h-5.879c-1.94 0-2.91.977-2.91 2.93v2.91c0 1.98.977 2.969 2.93 2.969h11.718c.625-.013.951.312.977.976 0 .664-.326.99-.977.977h-15.625c-.664-.026-.989-.352-.976-.977V51.586c.026-.664.351-.99.976-.977h17.579c.651 0 .976-.325.976-.976s-.325-.977-.976-.977h-17.579c-1.953 0-2.929.99-2.929 2.969V73.07c0 1.953.989 2.93 2.968 2.93h15.606c1.94 0 2.91-.977 2.91-2.93v.04c0-1.98-.976-2.97-2.93-2.97h-11.718c-.625.014-.951-.312-.977-.976v-2.95c0-.663.326-.989.977-.976h5.879c1.94 0 2.91-.976 2.91-2.93v.04c0-1.98-.977-2.97-2.93-2.97h-5.859c-.625.014-.951-.312-.977-.976v-2.91c0-.65-.325-.976-.976-.976-.652 0-.977.325-.977.976v2.871c0 1.98.977 2.969 2.93 2.969h5.859Zm36.133-5.84c0-.65-.326-.976-.977-.976s-.976.325-.976.976V73.09c0 1.94.963 2.91 2.89 2.91 1.98 0 2.969-.977 2.969-2.93V51.586c-.091-1.953-1.068-2.93-2.93-2.93h-1.953c-1.953 0-4.231 1.302-6.836 3.907l-9.765 9.765c-1.302 1.302-1.953 3.093-1.953 5.371v5.39c0 1.94.963 2.911 2.89 2.911 1.979 0 2.969-.977 2.969-2.93v-5.86c0-.65-.326-.976-.977-.976s-.976.326-.976.977v5.86c.013.624-.313.95-.977.976-.664 0-.989-.326-.976-.977v-4.96c0-2.006.605-3.614 1.816-4.825l9.043-9.062c2.409-2.41 4.264-3.614 5.566-3.614h2.129c.664 0 .99.326.977.977V73.07c.013.625-.313.95-.977.977-.664 0-.989-.326-.976-.977V55.492Zm13.672 13.672c0 3.268 1.627 4.896 4.883 4.883h11.718c.651.013.977-.313.977-.977-.026-.664-.352-.99-.977-.976H325.5c-1.94 0-2.91-.977-2.91-2.93V55.492c0-.65.325-.976.976-.976s.977.325.977.976v13.672c.026.664.345.99.957.977h11.738c1.953 0 2.93.983 2.93 2.949 0 1.94-.97 2.91-2.91 2.91H325.5c-4.544 0-6.816-2.279-6.816-6.836V55.492c0-4.557 2.272-6.836 6.816-6.836h7.832c4.557 0 6.836 2.272 6.836 6.817v9.785c0 .65-.326.976-.977.976s-.976-.325-.976-.976v-9.766c.013-3.255-1.615-4.883-4.883-4.883h-7.812c-3.256-.013-4.883 1.615-4.883 4.883v13.672ZM356.77 76c-.652 0-.977-.326-.977-.977 0-.65.325-.976.977-.976h4.882c3.907.013 5.86-1.413 5.86-4.278 0-2.981-1.433-4.479-4.297-4.492h-4.492c-1.953 0-2.93-.983-2.93-2.949v.04c0-1.98.977-2.97 2.93-2.97h4.492c2.864-.013 4.297-1.51 4.297-4.492 0-2.864-1.953-4.297-5.86-4.297H350.91c-.664 0-.989.326-.976.977V73.07c-.013.625.312.95.976.977.664 0 .99-.326.977-.977V55.492c0-.65.325-.976.976-.976s.977.325.977.976V73.09c0 1.94-.977 2.91-2.93 2.91h.039c-1.979 0-2.969-.977-2.969-2.93V51.586c.092-1.953 1.068-2.93 2.93-2.93h10.742c5.209 0 7.813 2.084 7.813 6.25 0 4.284-2.083 6.433-6.25 6.446h-4.492c-.651-.013-.977.312-.977.976 0 .664.326.99.977.977h1.172v.02h3.32c4.167.012 6.25 2.16 6.25 6.444 0 4.167-2.604 6.244-7.813 6.231h-4.882Zm33.203-14.668c.625-.013.95.313.976.977 0 .664-.325.99-.976.976h-5.879c-1.94 0-2.91.977-2.91 2.93v2.91c0 1.98.976 2.969 2.929 2.969h11.719c.625-.013.951.312.977.976 0 .664-.326.99-.977.977h-15.625c-.664-.026-.99-.352-.977-.977V51.586c.027-.664.352-.99.977-.977h17.578c.651 0 .977-.325.977-.976s-.326-.977-.977-.977h-17.578c-1.953 0-2.93.99-2.93 2.969V73.07c0 1.953.99 2.93 2.969 2.93h15.606c1.94 0 2.91-.977 2.91-2.93v.04c0-1.98-.977-2.97-2.93-2.97h-11.719c-.625.014-.95-.312-.976-.976v-2.95c0-.663.325-.989.976-.976h5.879c1.94 0 2.91-.976 2.91-2.93v.04c0-1.98-.976-2.97-2.929-2.97h-5.86c-.625.014-.95-.312-.976-.976v-2.91c0-.65-.326-.976-.977-.976s-.976.325-.976.976v2.871c0 1.98.976 2.969 2.929 2.969h5.86Zm31.25 3.945c.638 0 .963.326.976.977v6.875c0 1.94.964 2.91 2.891 2.91 1.979 0 2.969-.977 2.969-2.93v-6.914c0-4.544-2.279-6.816-6.836-6.816h-1.953c-.652-.013-.977-.339-.977-.977v-6.816c0-.651-.326-.977-.977-.977s-.976.326-.976.977v6.816c.065 1.836 1.042 2.813 2.93 2.93h1.953c3.268 0 4.895 1.628 4.882 4.883v6.894c.013.625-.312.95-.976.977-.664 0-.99-.326-.977-.977v-6.855c-.117-1.888-1.093-2.865-2.929-2.93h-7.832c-1.94 0-2.911.977-2.911 2.93v6.816c.013.651-.312.977-.976.977-.664-.026-.99-.352-.977-.977V51.508c.013-.573.339-.873.977-.899.664 0 .989.326.976.977v8.77c0 .65.326.976.977.976s.977-.325.977-.977v-8.789c0-1.94-.97-2.91-2.911-2.91-1.966 0-2.949.977-2.949 2.93V73.07c0 1.94.983 2.917 2.949 2.93 1.941 0 2.911-.97 2.911-2.91v-6.836c0-.664.325-.99.976-.977h7.813ZM38.383 17.494c.446 0 .674.228.683.684v4.812c0 1.358.675 2.037 2.024 2.037 1.385 0 2.078-.683 2.078-2.05v-4.84c0-3.181-1.595-4.772-4.785-4.772h-1.367c-.456-.009-.684-.237-.684-.683V7.91c0-.456-.228-.683-.684-.683-.455 0-.683.227-.683.683v4.772c.045 1.285.729 1.968 2.05 2.05h1.368c2.288 0 3.427 1.14 3.418 3.418v4.827c.009.437-.219.665-.684.683-.465 0-.692-.228-.683-.683v-4.8c-.082-1.32-.766-2.005-2.051-2.05H32.9c-1.358 0-2.037.684-2.037 2.05v4.772c.01.456-.218.684-.683.684-.465-.018-.693-.246-.684-.684V7.855c.01-.4.237-.61.684-.628.465 0 .692.227.683.683v6.139c0 .456.228.683.684.683.456 0 .683-.227.683-.683V7.896c0-1.358-.679-2.037-2.037-2.037-1.376 0-2.064.684-2.064 2.051v15.04c0 1.357.688 2.04 2.064 2.05 1.358 0 2.037-.679 2.037-2.037v-4.785c0-.465.228-.693.684-.684h5.469Zm15.039-.04c-3.19 0-4.785-1.591-4.785-4.772V7.896c0-1.358.674-2.037 2.023-2.037 1.386 0 2.078.684 2.078 2.051v4.785c0 .456-.228.684-.683.684-.456 0-.684-.228-.684-.684V7.91c.01-.437-.219-.665-.684-.683-.446 0-.674.21-.683.628v4.813c-.01 2.279 1.13 3.418 3.418 3.418h5.482c1.358 0 2.037.684 2.037 2.05v2.052c0 1.385-.683 2.078-2.05 2.078h-8.203c-.438-.01-.666.218-.684.683 0 .465.228.693.684.684h8.216c2.27 0 3.405-1.14 3.405-3.418V7.91c.009-.437-.22-.665-.684-.683-.465 0-.693.227-.684.683v4.758c0 .456-.227.684-.683.684-.456 0-.684-.228-.684-.684V7.896c0-1.358.675-2.037 2.024-2.037 1.385 0 2.078.684 2.078 2.051v12.305c0 3.19-1.59 4.785-4.772 4.785h-8.23c-1.358 0-2.037-.679-2.037-2.037 0-1.376.683-2.065 2.05-2.065h8.204c.437.01.665-.218.683-.683v-2.078c0-.465-.228-.693-.683-.684h-5.47ZM75.297 16.1c-.456 0-.684-.228-.684-.684 0-.456.228-.684.684-.684h4.101c2.28.01 3.418-1.13 3.418-3.417v-.67c0-2.288-1.139-3.428-3.418-3.418h-8.203c-.464 0-.692.227-.683.683v15.04c-.01.437.219.665.683.683.465 0 .693-.228.684-.684V10.644c0-.455.228-.683.683-.683.456 0 .684.228.684.684v12.318c0 1.358-.679 2.037-2.037 2.037-1.376 0-2.065-.684-2.065-2.05V7.91c.064-1.367.748-2.05 2.051-2.05h8.217c3.181 0 4.772 1.594 4.772 4.785v.67c0 3.19-1.59 4.785-4.772 4.785h-4.115Zm14.355-8.19c0-1.367.689-2.05 2.065-2.05 1.358 0 2.037.678 2.037 2.036v12.305c0 .456-.228.684-.684.684-.455 0-.683-.228-.683-.684V7.911c.009-.457-.219-.684-.684-.684-.465.018-.693.246-.684.683v15.04c-.009.455.22.683.684.683h8.203c2.279.009 3.418-1.13 3.418-3.418v-.67c0-2.288-1.139-3.427-3.418-3.418h-4.101c-.456 0-.684-.228-.684-.684 0-.455.228-.683.684-.683h4.115c3.181 0 4.771 1.595 4.771 4.785v.67c0 3.19-1.59 4.785-4.771 4.785h-8.217c-1.303 0-1.987-.684-2.05-2.05V7.91Zm29.395 6.822c.437-.009.665.22.683.684 0 .465-.227.693-.683.684h-4.115c-1.358 0-2.037.683-2.037 2.05v2.038c0 1.385.683 2.078 2.05 2.078h8.203c.438-.01.666.218.684.683 0 .465-.228.693-.684.684h-10.937c-.465-.018-.693-.246-.684-.684V7.91c.019-.465.246-.693.684-.683h12.305c.455 0 .683-.228.683-.684 0-.456-.228-.684-.683-.684h-12.305c-1.367 0-2.051.693-2.051 2.079v15.011c0 1.367.693 2.051 2.078 2.051h10.924c1.358 0 2.037-.684 2.037-2.05v.027c0-1.386-.683-2.079-2.051-2.079h-8.203c-.437.01-.665-.218-.683-.683V18.15c0-.464.228-.692.683-.683h4.116c1.358 0 2.037-.684 2.037-2.051v.027c0-1.385-.684-2.078-2.051-2.078h-4.102c-.437.01-.665-.219-.683-.683v-2.037c0-.456-.228-.684-.684-.684-.456 0-.683.228-.683.684v2.01c0 1.385.683 2.077 2.05 2.077h4.102ZM136.82 16.1c-.455 0-.683-.228-.683-.684 0-.456.228-.684.683-.684h4.102c2.279.01 3.418-1.13 3.418-3.417v-.67c0-2.288-1.139-3.428-3.418-3.418h-8.203c-.465 0-.693.227-.684.683v15.04c-.009.437.219.665.684.683.465 0 .692-.228.683-.684V10.644c0-.455.228-.683.684-.683.456 0 .684.228.684.684v12.318c0 1.358-.68 2.037-2.038 2.037-1.376 0-2.064-.684-2.064-2.05V7.91c.064-1.367.747-2.05 2.051-2.05h8.217c3.181 0 4.771 1.594 4.771 4.785v.67c0 3.19-1.59 4.785-4.771 4.785h-4.116Zm28.711-10.24c.456 0 .684.227.684.683 0 .456-.228.684-.684.684h-9.57c-2.279-.01-3.418 1.13-3.418 3.418v9.57c0 2.288 1.139 3.427 3.418 3.418h8.203c.456.009.684-.219.684-.684-.019-.465-.246-.693-.684-.683h-8.217c-1.358 0-2.037-.684-2.037-2.051v-9.57c0-.456.228-.684.684-.684.455 0 .683.228.683.684v9.57c.019.465.242.693.67.683h8.217c1.367 0 2.051.689 2.051 2.065 0 1.358-.679 2.037-2.037 2.037h-8.231c-3.181 0-4.771-1.595-4.771-4.785v-9.57c0-3.19 1.59-4.786 4.771-4.786h9.584Zm16.407 11.634c.446 0 .674.228.683.684v4.812c0 1.358.675 2.037 2.024 2.037 1.385 0 2.078-.683 2.078-2.05v-4.84c0-3.181-1.595-4.772-4.785-4.772h-1.368c-.455-.009-.683-.237-.683-.683V7.91c0-.456-.228-.683-.684-.683-.456 0-.683.227-.683.683v4.772c.045 1.285.729 1.968 2.05 2.05h1.368c2.287 0 3.427 1.14 3.417 3.418v4.827c.01.437-.218.665-.683.683-.465 0-.693-.228-.684-.683v-4.8c-.082-1.32-.765-2.005-2.05-2.05h-5.483c-1.358 0-2.037.684-2.037 2.05v4.772c.009.456-.219.684-.684.684-.464-.018-.692-.246-.683-.684V7.855c.009-.4.237-.61.683-.628.465 0 .693.227.684.683v6.139c0 .456.228.683.684.683.455 0 .683-.227.683-.683V7.896c0-1.358-.679-2.037-2.037-2.037-1.376 0-2.064.684-2.064 2.051v15.04c0 1.357.688 2.04 2.064 2.05 1.358 0 2.037-.679 2.037-2.037v-4.785c0-.465.228-.693.684-.684h5.469Zm12.988 5.455c.009.438-.219.666-.684.684-.465 0-.693-.228-.683-.684v-3.472c0-1.404.423-2.53 1.271-3.377l6.33-6.344c1.686-1.686 2.985-2.53 3.897-2.53h1.49c.465 0 .693.228.683.684v15.04c.01.437-.218.665-.683.683-.465 0-.693-.228-.684-.684v-6.166c-.082-1.321-.765-2.005-2.051-2.05h-4.101c-.456 0-.684.227-.684.683 0 .456.228.684.684.684h4.101c.447 0 .675.227.684.683v6.18c0 1.358.675 2.037 2.024 2.037 1.385 0 2.078-.684 2.078-2.05V7.91c-.064-1.367-.748-2.05-2.051-2.05h-1.367c-1.368 0-2.963.91-4.785 2.734l-6.836 6.836c-.912.911-1.368 2.164-1.368 3.76v3.773c0 1.358.675 2.037 2.024 2.037 1.385 0 2.078-.684 2.078-2.05v-4.102c0-.456-.228-.684-.684-.684-.455 0-.683.228-.683.684v4.101Zm21.711 1.805c-.319.319-.638.319-.957 0-.328-.328-.328-.652 0-.97l5.619-5.62c.693-.693 1.016-1.153.971-1.38 0-.447-.228-.675-.684-.684h-2.748c-3.181 0-4.772-1.595-4.772-4.786v-.67c0-3.19 1.591-4.785 4.772-4.785h8.217c1.303 0 1.987.684 2.05 2.051v15.04c0 1.366-.688 2.05-2.064 2.05-1.358 0-2.037-.679-2.037-2.037V10.644c0-.455.228-.683.684-.683.455 0 .683.228.683.684v12.304c-.009.456.219.684.684.684.465-.018.692-.246.683-.684V7.91c.009-.456-.218-.683-.683-.683h-8.203c-2.279-.01-3.418 1.13-3.418 3.418v.67c0 2.287 1.139 3.427 3.418 3.417h2.734c1.367 0 2.051.684 2.051 2.051 0 .62-.155 1.098-.465 1.436l-6.535 6.535Zm39.238-18.895c.456 0 .684.228.684.684 0 .456-.228.684-.684.684h-9.57c-2.279-.01-3.418 1.13-3.418 3.418v9.57c0 2.288 1.139 3.427 3.418 3.418h8.203c.456.009.683-.219.683-.684-.018-.465-.246-.693-.683-.683h-8.217c-1.358 0-2.037-.684-2.037-2.051v-9.57c0-.456.228-.684.684-.684.455 0 .683.228.683.684v9.57c.018.465.242.693.67.683h8.217c1.367 0 2.051.689 2.051 2.065 0 1.358-.679 2.037-2.038 2.037h-8.23c-3.181 0-4.771-1.595-4.771-4.785v-9.57c0-3.19 1.59-4.786 4.771-4.786h9.584Zm19.824 4.786c0-.456-.228-.684-.683-.684-.456 0-.684.228-.684.684v12.318c0 1.358.675 2.037 2.023 2.037 1.386 0 2.079-.684 2.079-2.05V7.91c-.064-1.367-.748-2.05-2.051-2.05h-1.367c-1.368 0-2.963.91-4.786 2.734l-6.835 6.836c-.912.911-1.368 2.164-1.368 3.76v3.773c0 1.358.675 2.037 2.024 2.037 1.385 0 2.078-.684 2.078-2.05v-4.102c0-.456-.228-.684-.684-.684-.455 0-.683.228-.683.684v4.101c.009.438-.219.666-.684.684-.465 0-.693-.228-.683-.684v-3.472c0-1.404.423-2.53 1.271-3.377l6.33-6.344c1.686-1.686 2.985-2.53 3.897-2.53h1.49c.465 0 .693.228.683.684v15.04c.01.437-.218.665-.683.683-.465 0-.693-.228-.684-.684V10.644Zm12.989 6.808c-3.191 0-4.786-1.59-4.786-4.771V7.896c0-1.358.675-2.037 2.024-2.037 1.385 0 2.078.684 2.078 2.051v4.785c0 .456-.228.684-.684.684-.455 0-.683-.228-.683-.684V7.91c.009-.437-.219-.665-.684-.683-.446 0-.674.21-.683.628v4.813c-.01 2.279 1.13 3.418 3.418 3.418h5.482c1.358 0 2.037.684 2.037 2.05v2.052c0 1.385-.684 2.078-2.051 2.078h-8.203c-.437-.01-.665.218-.683.683 0 .465.227.693.683.684h8.217c2.269 0 3.404-1.14 3.404-3.418V7.91c.009-.437-.219-.665-.683-.683-.465 0-.693.227-.684.683v4.758c0 .456-.228.684-.684.684-.455 0-.683-.228-.683-.684V7.896c0-1.358.674-2.037 2.023-2.037 1.386 0 2.078.684 2.078 2.051v12.305c0 3.19-1.59 4.785-4.771 4.785h-8.231c-1.358 0-2.037-.679-2.037-2.037 0-1.376.684-2.065 2.051-2.065h8.203c.438.01.666-.218.684-.683v-2.078c0-.465-.228-.693-.684-.684h-5.468Zm28.71 5.496c.01.438-.218.666-.683.684-.465 0-.693-.228-.684-.684v-4.771c0-1.367-.679-2.051-2.037-2.051h-4.799c-1.285.046-1.968.73-2.05 2.05v4.8c.009.455-.219.683-.684.683-.465-.018-.693-.246-.684-.683V18.15c-.009-2.278 1.131-3.418 3.418-3.418h.274c1.321-.082 2.005-.765 2.051-2.05V7.91c0-.456-.228-.683-.684-.683-.456 0-.684.227-.684.683v4.772c0 .446-.228.674-.683.683h-.274c-3.19 0-4.785 1.59-4.785 4.772v4.84c0 1.367.693 2.05 2.078 2.05 1.349 0 2.024-.679 2.024-2.037v-4.812c.009-.456.237-.684.683-.684h4.785c.456-.009.684.219.684.684v4.785c0 1.358.679 2.037 2.037 2.037 1.376-.01 2.065-.693 2.065-2.05v-4.772c0-.465.227-.693.683-.684h4.785c.447 0 .675.228.684.684v4.812c0 1.358.674 2.037 2.023 2.037 1.386 0 2.079-.683 2.079-2.05v-4.84c0-3.181-1.596-4.772-4.786-4.772h-.273c-.456-.009-.684-.237-.684-.683V7.91c0-.456-.228-.683-.683-.683-.456 0-.684.227-.684.683v4.772c.046 1.285.729 1.968 2.051 2.05h.273c2.288 0 3.427 1.14 3.418 3.418v4.827c.009.437-.218.665-.683.683-.465 0-.693-.228-.684-.683v-4.8c-.082-1.32-.765-2.005-2.051-2.05h-4.798c-1.359 0-2.038.684-2.038 2.05v4.772Zm1.286-15.053c0-1.358-.679-2.037-2.038-2.037-1.376 0-2.064.684-2.064 2.051v6.166c0 .456.228.684.684.684.455 0 .683-.228.683-.684v-6.22c.009-.402.237-.611.684-.63.465 0 .693.228.683.684v6.139c0 .456.228.683.684.683.456 0 .684-.227.684-.683V7.896Zm19.906 2.749c.018-.465.246-.693.683-.684h6.836c1.368 0 2.051-.688 2.051-2.065 0-1.358-.679-2.037-2.037-2.037h-9.557c-1.385 0-2.078.684-2.078 2.051v15.04c.064 1.366.748 2.05 2.051 2.05h8.217c3.181 0 4.771-1.595 4.771-4.785v-.67c0-3.19-1.59-4.785-4.771-4.785h-4.115c-.456 0-.684.228-.684.683 0 .456.228.684.684.684h4.101c2.279-.01 3.418 1.13 3.418 3.418v.67c0 2.288-1.139 3.427-3.418 3.418h-8.203c-.465 0-.693-.228-.684-.684V7.91c-.009-.437.219-.665.684-.683h9.57c.456-.01.684.218.684.683-.018.465-.246.693-.684.684h-6.836c-1.367 0-2.05.692-2.05 2.078v9.53c0 .455.228.683.683.683.456 0 .684-.228.684-.684v-9.556Zm19.14 12.304c.01.438-.218.666-.683.684-.465 0-.693-.228-.684-.684v-3.472c0-1.404.424-2.53 1.272-3.377l6.33-6.344c1.686-1.686 2.985-2.53 3.896-2.53h1.491c.464 0 .692.228.683.684v15.04c.009.437-.219.665-.683.683-.465 0-.693-.228-.684-.684v-6.166c-.082-1.321-.766-2.005-2.051-2.05h-4.101c-.456 0-.684.227-.684.683 0 .456.228.684.684.684h4.101c.447 0 .675.227.684.683v6.18c0 1.358.674 2.037 2.023 2.037 1.386 0 2.078-.684 2.078-2.05V7.91c-.063-1.367-.747-2.05-2.05-2.05h-1.368c-1.367 0-2.962.91-4.785 2.734l-6.836 6.836c-.911.911-1.367 2.164-1.367 3.76v3.773c0 1.358.675 2.037 2.024 2.037 1.385 0 2.078-.684 2.078-2.05v-4.102c0-.456-.228-.684-.684-.684-.456 0-.684.228-.684.684v4.101Z" fill="#000"/></svg>